<svg width="32" height="32" viewBox="0 0 32 32" fill="none" xmlns="http://www.w3.org/2000/svg">
<rect width="32" height="32" rx="4" fill="#223F7F"/>
<g clip-path="url(#clip0_551_3814)">
<path d="M7.15089 5.07816C7.17038 5.07817 7.18988 5.07818 7.20996 5.07819C8.34404 5.07899 9.461 5.13539 10.5876 5.27082C10.6086 5.27334 10.6296 5.27587 10.6512 5.27847C11.4805 5.3786 12.292 5.53704 13.1031 5.73612C13.1745 5.75338 13.2461 5.76984 13.3178 5.78619C13.7781 5.89366 14.2223 6.04519 14.6687 6.19947C14.754 6.22893 14.8395 6.2577 14.9252 6.28607C15.865 6.60049 16.7759 7.04367 17.6276 7.54926C17.6736 7.5762 17.7197 7.60315 17.7658 7.63009C18.4144 8.0123 19.0245 8.45842 19.6009 8.94311C19.6168 8.95643 19.6327 8.96975 19.6491 8.98348C20.0145 9.29077 20.357 9.62039 20.6942 9.95835C20.7074 9.97157 20.7206 9.98475 20.7342 9.99834C20.8867 10.151 21.0354 10.3055 21.1742 10.471L21.2314 10.5389C21.2615 10.5745 21.2915 10.6103 21.3214 10.6461C21.3579 10.6917 21.3579 10.6917 21.4142 10.6854C21.4559 10.6361 21.4944 10.5867 21.5326 10.5347C21.5567 10.5024 21.5809 10.4702 21.6051 10.438C21.6176 10.4213 21.6301 10.4045 21.643 10.3873C21.7029 10.3077 21.7644 10.2294 21.8259 10.151C21.8507 10.1194 21.8755 10.0877 21.9003 10.0561C21.9249 10.0246 21.9496 9.99317 21.9742 9.9617C22.1349 9.7567 22.2949 9.55126 22.4542 9.34518C22.6251 9.12415 22.797 8.90389 22.9693 8.68396C23.1169 8.49541 23.2642 8.30651 23.4109 8.11719C23.4247 8.09944 23.4384 8.08173 23.4526 8.06345C23.619 7.84847 23.7831 7.63171 23.9476 7.41523C23.931 7.41272 23.9144 7.4102 23.8972 7.40761C23.7229 7.38124 23.5485 7.35468 23.3741 7.32801C23.3093 7.31811 23.2444 7.30826 23.1795 7.29845C23.0857 7.28427 22.9919 7.26994 22.8981 7.25555C22.8553 7.24914 22.8553 7.24914 22.8116 7.24259C22.61 7.21143 22.4124 7.1689 22.2142 7.12038V7.06676C22.8928 6.77425 23.5777 6.49915 24.2668 6.23253C24.3208 6.21163 24.3747 6.19069 24.4287 6.16971C24.7077 6.06136 24.9875 5.95607 25.2708 5.85938C25.294 5.85133 25.3172 5.84326 25.3412 5.83496C25.3629 5.8277 25.3845 5.82045 25.4069 5.81297C25.4257 5.80659 25.4446 5.80022 25.464 5.79365C25.5289 5.77821 25.5878 5.77783 25.6542 5.78012C25.6372 6.02439 25.6073 6.26587 25.5732 6.50825C25.5677 6.54744 25.5623 6.58663 25.5569 6.62582C25.5424 6.73008 25.5278 6.83435 25.5132 6.9386C25.4981 7.0468 25.4831 7.15501 25.468 7.26322C25.4439 7.43703 25.4196 7.61082 25.3953 7.78462C25.3643 8.00715 25.3335 8.22977 25.3027 8.45236C25.2899 8.54427 25.2772 8.63616 25.2645 8.72808C25.2566 8.78512 25.2487 8.84219 25.2408 8.89925C25.23 8.97737 25.2192 9.05548 25.2083 9.13359C25.2036 9.16733 25.2036 9.16733 25.1989 9.20175C25.1846 9.30393 25.1693 9.40512 25.1476 9.50602C25.0616 9.40643 25.0199 9.29377 24.9726 9.17264C24.959 9.1383 24.959 9.1383 24.9451 9.10327C24.8496 8.85757 24.7649 8.60807 24.6809 8.35817C24.6194 8.17549 24.5547 7.99536 24.4809 7.81729C24.1147 8.35219 23.7505 8.88845 23.3876 9.4256C23.3776 9.4404 23.3676 9.45519 23.3573 9.47042C23.1619 9.75956 22.9667 10.0487 22.7717 10.3382C22.7471 10.3749 22.7223 10.4116 22.6976 10.4483C22.6371 10.5382 22.5765 10.6281 22.5161 10.7181C22.4187 10.8632 22.3211 11.008 22.2194 11.1501L22.1764 11.2107C22.1516 11.2454 22.1265 11.2799 22.101 11.314C22.0558 11.3774 22.0281 11.4221 22.0253 11.501C22.0678 11.6023 22.1293 11.6848 22.1942 11.7727C23.2726 13.2726 24.0576 14.9839 24.6142 16.7434C24.6218 16.7669 24.6293 16.7905 24.6372 16.8147C25.1581 18.4394 25.4845 20.1289 25.6863 21.8221C25.7084 22.007 25.7338 22.1914 25.7592 22.3758C25.7946 22.6338 25.8246 22.8921 25.8527 23.151C25.8561 23.1822 25.8595 23.2135 25.863 23.2457C25.8802 23.403 25.897 23.5603 25.9134 23.7177C25.9883 24.4213 26.1236 25.167 26.6676 25.6695C26.9477 25.8824 27.1741 25.9504 27.5209 25.9426L27.6143 25.9415C27.6899 25.9405 27.7654 25.9392 27.8409 25.9375C27.8583 26.038 27.8755 26.1386 27.8926 26.2391L27.9073 26.3239C27.9398 26.5164 27.9612 26.7077 27.9742 26.9025C27.3019 26.9234 26.7273 26.8382 26.2142 26.3664L26.1601 26.3194C25.8739 26.0551 25.6999 25.7117 25.5742 25.3478L25.5428 25.2586C25.4685 25.0417 25.4133 24.8384 25.3959 24.609C25.3089 23.7469 25.0146 22.934 24.5876 22.1848C24.5619 22.1363 24.5364 22.0877 24.5109 22.0391C24.229 21.5258 23.8977 21.0507 23.5209 20.6033L23.4558 20.5229C23.2837 20.3127 23.0968 20.1178 22.9059 19.9248C22.8816 19.9002 22.8574 19.8756 22.8324 19.8502C22.69 19.7077 22.5429 19.5758 22.3861 19.4496C22.3338 19.4075 22.2827 19.3647 22.2324 19.3204C22.0071 19.1226 21.7685 18.9489 21.5209 18.7806L21.4655 18.7429C20.4745 18.0737 19.4043 17.6213 18.2733 17.2538C18.218 17.2358 18.1627 17.2176 18.1076 17.1991C18.1005 17.2186 18.0934 17.2381 18.0861 17.2582C18.054 17.3336 18.0169 17.3934 17.9697 17.4603C17.9527 17.4847 17.9357 17.509 17.9181 17.5341C17.8998 17.5601 17.8815 17.5861 17.8626 17.6129C17.8237 17.6684 17.7849 17.724 17.7461 17.7796L17.6862 17.8652C17.5961 17.9948 17.5076 18.1255 17.4192 18.2562C17.386 18.3052 17.3528 18.3543 17.3196 18.4033C17.304 18.4265 17.2883 18.4496 17.2722 18.4734C17.0538 18.7959 16.8319 19.1159 16.6091 19.4352C16.5453 19.5266 16.4817 19.6182 16.418 19.7097C16.356 19.7988 16.2939 19.888 16.2317 19.9771C16.2032 20.0181 16.1746 20.059 16.1461 20.1C15.9949 20.3173 15.8414 20.5327 15.6842 20.7457C15.3666 21.1768 15.0667 21.6201 14.7666 22.0637C14.6543 22.2296 14.5413 22.3951 14.4276 22.5601L14.3909 22.6135C14.0926 23.0468 13.7788 23.4706 13.4409 23.8735L13.3751 23.9547C13.0382 24.3653 12.6616 24.7617 12.2317 25.0741C12.1856 25.108 12.1406 25.143 12.0956 25.1783C11.8232 25.3894 11.5306 25.5603 11.2276 25.7231C11.2072 25.7341 11.1869 25.7451 11.166 25.7564C10.6239 26.0445 10.0124 26.2445 9.40564 26.3295C9.35302 26.337 9.30052 26.3451 9.24806 26.3537C9.02398 26.3891 8.80593 26.4027 8.57924 26.4016L8.47686 26.4013C8.2203 26.3982 7.98313 26.3729 7.73422 26.3128C7.69918 26.3055 7.66409 26.2983 7.62902 26.2911C7.14612 26.1875 6.6999 25.9588 6.3209 25.6427L6.25694 25.5913C5.88117 25.2737 5.67134 24.8665 5.51423 24.4063C5.50765 24.3871 5.50106 24.3679 5.49428 24.3482C5.40095 24.0622 5.3789 23.7846 5.38061 23.4855C5.38089 23.4268 5.38061 23.3681 5.38027 23.3095C5.37984 22.9354 5.42008 22.5761 5.51423 22.2133C5.52124 22.1859 5.52825 22.1584 5.53548 22.1301C5.9116 20.6919 6.81785 19.3465 7.93724 18.3799C7.98473 18.3389 8.03182 18.2974 8.0787 18.2557C9.0539 17.3934 10.1934 16.756 11.4026 16.2911C11.4215 16.2838 11.4404 16.2765 11.4598 16.269C11.8173 16.1321 12.1761 16.0043 12.5476 15.9108C12.601 15.8971 12.6544 15.8834 12.7078 15.8697L12.7845 15.8501C12.8429 15.835 12.901 15.8192 12.959 15.8027C13.714 15.5893 14.5225 15.4679 15.3076 15.4567C15.3244 15.4565 15.3413 15.4562 15.3587 15.4559C16.1219 15.4443 16.8725 15.4676 17.6276 15.5908L17.6472 15.5466C17.689 15.4685 17.7399 15.4028 17.7942 15.3328C17.8058 15.3178 17.8174 15.3028 17.8294 15.2873C17.8549 15.2543 17.8805 15.2213 17.9062 15.1883C17.9493 15.1329 17.9922 15.0774 18.0351 15.0219C18.1141 14.9196 18.1933 14.8173 18.2725 14.7151C18.3509 14.6139 18.4292 14.5126 18.5076 14.4113C18.5229 14.3915 18.5382 14.3717 18.554 14.3513C18.6328 14.2495 18.7116 14.1476 18.7904 14.0457C18.9914 13.7857 19.1932 13.5264 19.3959 13.2676C19.4315 13.2222 19.467 13.1768 19.5026 13.1314L19.5384 13.0856C19.6414 12.9538 19.7437 12.8215 19.8459 12.6891C19.9762 12.5205 20.1073 12.3526 20.2409 12.1865C20.1536 11.9767 19.9346 11.8197 19.7658 11.6746C19.7073 11.6235 19.6504 11.5708 19.5936 11.5178C18.9833 10.9489 18.2948 10.4588 17.5742 10.0421C17.5548 10.0308 17.5354 10.0195 17.5154 10.0078C15.6752 8.94054 13.6011 8.37192 11.4942 8.16576C11.4594 8.16211 11.4246 8.15842 11.3887 8.15464C10.216 8.03243 8.99446 8.03112 7.82004 8.13386C7.75393 8.13954 7.6878 8.14496 7.62164 8.15029C6.78574 8.21816 5.95568 8.30941 5.12743 8.44284C4.91212 8.47694 4.6985 8.5012 4.4809 8.51423C4.41679 8.22358 4.37481 7.93191 4.33543 7.6369C4.30828 7.4346 4.27896 7.23298 4.24589 7.03158C4.19419 6.71426 4.14707 6.39627 4.10053 6.07814C4.09192 6.01934 4.08326 5.96053 4.07457 5.90174C4.06225 5.81839 4.0501 5.73502 4.03798 5.65164C4.03423 5.62645 4.03048 5.60126 4.02662 5.57531C4.00929 5.4548 3.99642 5.33939 4.00089 5.21721C4.32322 5.18292 4.64577 5.15613 4.96923 5.13512C5.01619 5.13194 5.0162 5.13193 5.06412 5.12868C5.7588 5.08522 6.45508 5.07752 7.15089 5.07816ZM14.7596 16.7092C14.6558 16.7096 14.552 16.7098 14.4482 16.7096C14.0568 16.7083 13.6699 16.7125 13.2814 16.763C13.2631 16.7654 13.2453 16.7678 13.2276 16.7702C13.1428 16.7813 13.0581 16.7929 12.9736 16.8062C12.9477 16.8105 12.9227 16.8146 12.8976 16.8187C11.4905 17.0505 10.1577 17.5769 9.03678 18.4731C9.00574 18.498 8.97465 18.5227 8.94345 18.5474C8.46652 18.9239 8.0626 19.3975 7.71657 19.8962C7.69582 19.9264 7.67505 19.9566 7.65428 19.9868C7.36385 20.3998 7.14758 20.895 7.01374 21.3814C7.00769 21.4039 7.00182 21.4258 6.99596 21.4477C6.90782 21.7741 6.87036 22.0983 6.86926 22.436C6.86926 22.456 6.86926 22.4753 6.86929 22.4947C6.86881 22.8235 6.88449 23.1321 6.99468 23.4453L7.01428 23.4982C7.11889 23.7809 7.26961 24.0496 7.48273 24.2641C7.8399 24.5724 8.22268 24.7183 8.69036 24.714C9.79574 24.6812 10.7995 24.1188 11.5577 23.3301C11.6246 23.2601 11.6924 23.1913 11.7609 23.123C11.9147 22.9723 12.067 22.8233 12.2026 22.6555C12.2761 22.5627 12.3504 22.471 12.4272 22.3809C12.6388 22.1324 12.8376 21.8744 13.036 21.6152C13.2438 21.3428 13.4535 21.0718 13.6647 20.8021C13.7669 20.6716 13.8686 20.5407 13.9693 20.409C14.0445 20.3103 14.12 20.2119 14.1961 20.114C14.346 19.9209 14.4953 19.7275 14.6409 19.5311C14.7382 19.3998 14.8368 19.2698 14.9372 19.1409C15.0802 18.9574 15.2207 18.7726 15.3576 18.5845C15.4741 18.4243 15.5922 18.2654 15.7121 18.1078C15.8377 17.9432 15.9636 17.7791 16.0827 17.6096C16.1881 17.4584 16.298 17.3135 16.4143 17.1706C16.4994 17.068 16.5733 16.9801 16.6143 16.8506C16.5556 16.8418 16.497 16.8331 16.4383 16.8246L16.3626 16.8137C15.831 16.7333 15.2967 16.7089 14.7596 16.7092ZM20.9609 12.9907C20.7053 13.3681 20.4501 13.7459 20.1954 14.124C20.0685 14.3124 19.9416 14.5007 19.8144 14.6888C19.7201 14.8281 19.626 14.9675 19.5321 15.107C19.4912 15.1677 19.4504 15.2283 19.4094 15.289C19.3574 15.3657 19.3056 15.4425 19.2539 15.5194C19.2342 15.5488 19.2151 15.5773 19.1959 15.6058C19.177 15.6337 19.1586 15.6609 19.1402 15.688C19.123 15.7136 19.1064 15.7385 19.0898 15.7634C19.0365 15.8424 19.0143 15.8695 19.0143 15.966C19.5467 16.1206 20.0547 16.3313 20.5511 16.5779C20.5914 16.598 20.6318 16.6179 20.6722 16.6377C21.5152 17.0492 22.3266 17.5417 23.0634 18.1244C23.1084 18.1602 23.1536 18.1954 23.1994 18.2302C23.4505 18.4198 23.6937 18.6149 23.9294 18.8238L24.0009 18.8878C24.0307 18.7979 24.0308 18.7979 23.984 18.6575C23.9732 18.6266 23.9732 18.6266 23.9626 18.5962C23.8772 18.3464 23.7861 18.099 23.69 17.8531L23.6543 17.762C23.0817 16.3018 22.4077 14.8874 21.4849 13.614L21.4409 13.5536C21.3875 13.4797 21.334 13.4059 21.2801 13.3324C21.2617 13.3073 21.2438 13.283 21.2259 13.2587C21.2083 13.2344 21.1911 13.2108 21.1739 13.1872C21.1573 13.1648 21.1411 13.1431 21.125 13.1213C21.0685 13.0446 21.0532 13.0215 20.9609 12.9907Z" fill="white"/>
</g>
<defs>
<clipPath id="clip0_551_3814">
<rect width="24" height="21.8462" fill="white" transform="translate(4 5.07812)"/>
</clipPath>
</defs>
</svg>
